<svg xmlns="http://www.w3.org/2000/svg" viewBox="0 0 512 512"><defs>
  <radialGradient id="bg" cx="50%" cy="28%" r="85%"><stop offset="0" stop-color="#26306a"/><stop offset=".5" stop-color="#0e1228"/><stop offset="1" stop-color="#04050b"/></radialGradient>
  <radialGradient id="ball" cx="36%" cy="30%" r="72%"><stop offset="0" stop-color="#ffbe7a"/><stop offset=".42" stop-color="#f27a1f"/><stop offset=".85" stop-color="#9a3d0a"/><stop offset="1" stop-color="#5e2205"/></radialGradient>
  <linearGradient id="pulse" x1="0" x2="1"><stop offset="0" stop-color="#ff3d9a"/><stop offset=".55" stop-color="#b36cff"/><stop offset="1" stop-color="#2de2e6"/></linearGradient>
  <linearGradient id="face" x1="0" y1="0" x2="0" y2="1"><stop offset="0" stop-color="#ffffff"/><stop offset=".55" stop-color="#bff9fb"/><stop offset="1" stop-color="#2de2e6"/></linearGradient>
  <linearGradient id="ring" x1="0" y1="1" x2="1" y2="0"><stop offset="0" stop-color="#ff3d9a"/><stop offset="1" stop-color="#2de2e6"/></linearGradient>
  <radialGradient id="shadow"><stop offset="0" stop-color="#000" stop-opacity=".75"/><stop offset="1" stop-color="#000" stop-opacity="0"/></radialGradient>
  <filter id="glow" x="-30%" y="-60%" width="160%" height="220%"><feGaussianBlur stdDeviation="9" result="b"/><feMerge><feMergeNode in="b"/><feMergeNode in="SourceGraphic"/></feMerge></filter>
  <filter id="soft" x="-30%" y="-30%" width="160%" height="160%"><feGaussianBlur stdDeviation="4"/></filter>
</defs>
<rect width="512" height="512" fill="url(#bg)"/>
<ellipse cx="256" cy="403.64" rx="118.8" ry="21.12" fill="url(#shadow)"/>
<circle cx="256" cy="236" r="132" fill="url(#ball)"/>
<g fill="none" stroke="#3a1404" stroke-width="7.3" stroke-linecap="round" opacity=".9">
  <path d="M256 104v264"/><path d="M124 236h264"/>
  <path d="M168.0 138.0c44.0 44.0 44.0 152.0 0 196.0"/>
  <path d="M344.0 138.0c-44.0 44.0 -44.0 152.0 0 196.0"/>
</g>
<ellipse cx="210.0" cy="174.0" rx="58.0" ry="32.0" fill="#fff" opacity=".24" transform="rotate(-32 210.0 174.0)" filter="url(#soft)"/>
<circle cx="256" cy="236" r="129" fill="none" stroke="#000" stroke-opacity=".28" stroke-width="6"/>
<polyline points="34,262 150,262 190,262 220,196 252,334 286,150 318,262 478,262" stroke="#05060c" stroke-width="34" fill="none" stroke-linecap="round" stroke-linejoin="round" opacity=".85"/>
<polyline points="34,262 150,262 190,262 220,196 252,334 286,150 318,262 478,262" stroke="url(#pulse)" stroke-width="18" fill="none" stroke-linecap="round" stroke-linejoin="round" filter="url(#glow)"/></svg>
